Coordinates
version=1
nRows=35
nColumns=30
inDegrees=yes

Units are S.I. units (second, meters, Newtons, ...)
Angles are in degrees.

endheader
time	floatyaw	floatroll	floatpitch	floatx	floaty	floatz	pro_sup_l	deviation_l	flexion_l	cmc_flexion_l	cmc_abduction_l	mp_flexion_l	ip_flexion_l	2mcp_flexion_l	2mcp_abduction_l	2pm_flexion_l	2md_flexion_l	3mcp_flexion_l	3mcp_abduction_l	3pm_flexion_l	3md_flexion_l	4mcp_flexion_l	4mcp_abduction_l	4pm_flexion_l	4md_flexion_l	5mcp_flexion_l	5mcp_abduction_l	5pm_flexion_l	5md_flexion_l
0.005000	-160.147433	-5.066637	-73.570646	-0.065835	-0.127245	-0.121904	17.551282	-24.688219	-1.724688	21.155008	-20.946146	-23.292302	-48.454235	45.229994	14.600042	48.894317	38.535808	53.128844	6.359385	49.116970	33.724649	37.987585	-6.398163	58.608480	45.605075	2.848272	-13.101262	73.281886	56.564687
0.015000	-160.147433	-5.066637	-73.570646	-0.065065	-0.124094	-0.121860	16.696508	-24.105753	-1.806050	19.417863	-21.979752	-22.891404	-47.881797	46.268060	14.872153	47.865597	38.977739	54.401057	6.477863	49.279791	34.432675	38.872699	-6.549465	59.153437	46.749937	2.601661	-12.920397	73.655956	57.094598
0.025000	-160.147433	-5.066637	-73.570646	-0.064107	-0.121217	-0.121592	15.993750	-23.306233	-1.707205	17.795997	-22.885712	-22.430519	-47.194660	46.261447	14.887058	46.575149	39.331045	54.605252	6.503091	49.097884	34.995803	39.086641	-6.635221	59.030314	47.559866	2.323547	-12.591069	73.492559	57.117874
0.035000	-160.147433	-5.066637	-73.570646	-0.063232	-0.118760	-0.121311	15.422601	-22.570174	-1.502902	16.435824	-23.641287	-22.028189	-46.590766	45.629970	14.797498	45.347389	39.709564	54.189128	6.473167	48.742052	35.448011	38.884607	-6.673479	58.543051	48.149368	1.978462	-12.269144	73.085878	56.904767
0.045000	-160.147433	-5.066637	-73.570646	-0.062578	-0.116843	-0.121149	14.966551	-22.079158	-1.296717	15.419467	-24.214085	-21.749838	-46.183159	44.790411	14.727183	44.432494	40.173076	53.570762	6.420335	48.372491	35.820826	38.515979	-6.681646	57.996217	48.612354	1.550876	-12.066874	72.682953	56.693750
0.055000	-160.147433	-5.066637	-73.570646	-0.062155	-0.115535	-0.121140	14.602181	-21.876888	-1.169531	14.757360	-24.597434	-21.571435	-45.952538	44.024414	14.735448	43.922905	40.694678	53.013695	6.363263	48.081788	36.121125	38.147514	-6.671908	57.588947	48.983216	1.052959	-12.019077	72.417779	56.613665
0.065000	-160.147433	-5.066637	-73.570646	-0.061885	-0.114832	-0.121245	14.305449	-21.885833	-1.150149	14.394027	-24.825130	-21.410854	-45.787162	43.443710	14.816500	43.751780	41.179861	52.605428	6.308711	47.882620	36.333499	37.846028	-6.651017	57.379423	49.245144	0.527044	-12.089113	72.303881	56.666931
0.075000	-160.147433	-5.066637	-73.570646	-0.061670	-0.114641	-0.121396	14.063982	-21.968659	-1.217576	14.232172	-24.955946	-21.194710	-45.572434	43.031021	14.925198	43.764216	41.525427	52.313756	6.258181	47.736893	36.441748	37.608391	-6.622750	57.317102	49.368451	0.035839	-12.205209	72.273937	56.770663
0.085000	-160.147433	-5.066637	-73.570646	-0.061439	-0.114796	-0.121535	13.882314	-22.001067	-1.324370	14.167994	-25.043482	-20.908649	-45.263786	42.712034	15.011593	43.810457	41.677760	52.067615	6.213557	47.599984	36.450076	37.407383	-6.590370	57.308983	49.347259	-0.358729	-12.302857	72.239013	56.825064
0.095000	-160.147433	-5.066637	-73.570646	-0.061173	-0.115110	-0.121632	13.775077	-21.920661	-1.423403	14.122489	-25.115662	-20.600267	-44.900093	42.418784	15.046582	43.807505	41.654157	51.817344	6.178455	47.451139	36.387434	37.225204	-6.557542	57.279893	49.211931	-0.617768	-12.350869	72.138101	56.770487
0.105000	-160.147433	-5.066637	-73.570646	-0.060895	-0.115423	-0.121682	13.753001	-21.734995	-1.485276	14.056774	-25.175918	-20.341477	-44.562815	42.122869	15.029582	43.747324	41.521624	51.556183	6.156031	47.297484	36.293937	37.063593	-6.527777	57.201466	49.015860	-0.736955	-12.353236	71.959348	56.609008
0.115000	-160.147433	-5.066637	-73.570646	-0.060648	-0.115641	-0.121696	13.811161	-21.496190	-1.502528	13.969018	-25.218865	-20.181492	-44.318653	41.836162	14.980269	43.665822	41.355687	51.309755	6.146317	47.158692	36.201613	36.935957	-6.503407	57.087228	48.811411	-0.742619	-12.333865	71.731691	56.390464
0.125000	-160.147433	-5.066637	-73.570646	-0.060464	-0.115749	-0.121686	13.926772	-21.263622	-1.483684	13.878560	-25.244429	-20.121032	-44.183559	41.590192	14.923538	43.602949	41.207414	51.111721	6.145579	47.048544	36.123140	36.853852	-6.484969	56.968423	48.631657	-0.676736	-12.317495	71.499882	56.180010
0.135000	-160.147433	-5.066637	-73.570646	-0.060351	-0.115782	-0.121658	14.067537	-21.075272	-1.443062	13.806461	-25.260670	-20.119687	-44.123710	41.410520	14.877108	43.578057	41.093122	50.982289	6.148084	46.966225	36.053668	36.817887	-6.471319	56.870012	48.485688	-0.579906	-12.317233	71.300096	56.026895
0.145000	-160.147433	-5.066637	-73.570646	-0.060295	-0.115798	-0.121613	14.205170	-20.937887	-1.391776	13.761612	-25.277716	-20.125984	-44.084186	41.299987	14.846672	43.587448	41.003765	50.918561	6.148823	46.900106	35.981352	36.816691	-6.460290	56.799606	48.365437	-0.479952	-12.332277	71.147426	55.947197
0.155000	-160.147433	-5.066637	-73.570646	-0.060271	-0.115841	-0.121551	14.325979	-20.834416	-1.333101	13.737607	-25.301292	-20.107461	-44.022760	41.237338	14.828200	43.615951	40.921827	50.897741	6.145439	46.837861	35.898242	36.832012	-6.449567	56.750526	48.257184	-0.389161	-12.353261	71.036675	55.924110
0.165000	-160.147433	-5.066637	-73.570646	-0.060255	-0.115927	-0.121467	14.432589	-20.739920	-1.262967	13.719308	-25.331431	-20.062079	-43.928468	41.188967	14.813822	43.649397	40.834657	50.888630	6.138427	46.774275	35.805497	36.845649	-6.437487	56.711536	48.151208	-0.308618	-12.369914	70.950958	55.922129
0.175000	-160.147433	-5.066637	-73.570646	-0.060232	-0.116043	-0.121360	14.536640	-20.636038	-1.174470	13.693151	-25.365753	-20.008014	-43.817957	41.125435	14.797247	43.679991	40.739526	50.864584	6.129973	46.711959	35.711752	36.844819	-6.423566	56.674595	48.045946	-0.235625	-12.376544	70.871566	55.906616
0.185000	-160.147433	-5.066637	-73.570646	-0.060198	-0.116167	-0.121233	14.647833	-20.517698	-1.063804	13.654714	-25.403405	-19.963587	-43.717274	41.033416	14.776169	43.705062	40.641657	50.812140	6.122386	46.656439	35.627500	36.824612	-6.408575	56.636773	47.946435	-0.169690	-12.373481	70.785325	55.859027
0.195000	-160.147433	-5.066637	-73.570646	-0.060158	-0.116279	-0.121094	14.766357	-20.391118	-0.934386	13.610325	-25.446465	-19.932896	-43.643751	40.917730	14.751445	43.724118	40.549106	50.732559	6.117053	46.610682	35.559711	36.787704	-6.394151	56.597978	47.859702	-0.114238	-12.365175	70.688356	55.781479
0.205000	-160.147433	-5.066637	-73.570646	-0.060117	-0.116371	-0.120953	14.882562	-20.266681	-0.796845	13.573225	-25.498050	-19.905221	-43.598850	40.794278	14.724693	43.737522	40.468050	50.637063	6.114190	46.573216	35.509813	36.741843	-6.382119	56.558360	47.790656	-0.074309	-12.356868	70.586112	55.690893
0.215000	-160.147433	-5.066637	-73.570646	-0.060081	-0.116450	-0.120826	14.982424	-20.151984	-0.665096	13.557204	-25.558500	-19.865326	-43.572859	40.679460	14.696484	43.746514	40.400375	50.539317	6.113177	46.540222	35.475329	36.695980	-6.373847	56.517703	47.740575	-0.053170	-12.351749	70.490074	55.608179
0.225000	-160.147433	-5.066637	-73.570646	-0.060050	-0.116531	-0.120721	15.054318	-20.048870	-0.551105	13.570926	-25.622439	-19.805360	-43.554174	40.582390	14.666288	43.753021	40.343632	50.449346	6.113031	46.508822	35.452819	36.656582	-6.369835	56.476463	47.707623	-0.050684	-12.349904	70.412465	55.548865
0.235000	-160.147433	-5.066637	-73.570646	-0.060024	-0.116624	-0.120643	15.093623	-19.954681	-0.461253	13.614857	-25.679622	-19.730020	-43.535238	40.502974	14.633724	43.758954	40.292472	50.371225	6.112797	46.478685	35.439322	36.625778	-6.369583	56.436615	47.687556	-0.063898	-12.349354	70.361091	55.518607
0.245000	-160.147433	-5.066637	-73.570646	-0.060000	-0.116736	-0.120592	15.104127	-19.865347	-0.395516	13.680947	-25.720073	-19.652514	-43.512566	40.434688	14.599684	43.765624	40.240687	50.304050	6.111852	46.451184	35.431720	36.601769	-6.371672	56.400959	47.673984	-0.088392	-12.348270	70.336125	55.513488
0.255000	-160.147433	-5.066637	-73.570646	-0.059977	-0.116861	-0.120561	15.096562	-19.777897	-0.348852	13.754538	-25.740219	-19.585246	-43.484015	40.368990	14.566282	43.773538	40.183647	50.244291	6.110159	46.427256	35.425898	36.580603	-6.374117	56.370988	47.659557	-0.119152	-12.346627	70.329667	55.523365
0.265000	-160.147433	-5.066637	-73.570646	-0.059951	-0.116989	-0.120542	15.084834	-19.691540	-0.313663	13.818394	-25.745299	-19.532214	-43.447607	40.299126	14.535756	43.782320	40.120710	50.188091	6.108294	46.405783	35.417526	36.558105	-6.374970	56.344984	47.639019	-0.150998	-12.346055	70.328226	55.536483
0.275000	-160.147433	-5.066637	-73.570646	-0.059922	-0.117108	-0.120529	15.081077	-19.607610	-0.282466	13.858540	-25.746309	-19.488409	-43.403042	40.222583	14.509317	43.790965	40.056021	50.133024	6.107145	46.383903	35.404020	36.531391	-6.373008	56.318474	47.612118	-0.179176	-12.348247	70.317605	55.543714
0.285000	-160.147433	-5.066637	-73.570646	-0.059889	-0.117209	-0.120515	15.091472	-19.528736	-0.250164	13.869942	-25.753974	-19.446089	-43.353388	40.141927	14.486833	43.798816	39.996026	50.078931	6.107380	46.359372	35.385571	36.499777	-6.368234	56.287771	47.583030	-0.200252	-12.353405	70.288643	55.540715
0.295000	-160.147433	-5.066637	-73.570646	-0.059855	-0.117290	-0.120499	15.114734	-19.457444	-0.215235	13.858751	-25.773483	-19.402582	-43.304124	40.063770	14.467437	43.806694	39.944446	50.027467	6.109024	46.333306	35.363969	36.464810	-6.361857	56.254334	47.555940	-0.212938	-12.359947	70.241357	55.527356
0.305000	-160.147433	-5.066637	-73.570646	-0.059824	-0.117356	-0.120482	15.143979	-19.394565	-0.179149	13.839002	-25.802219	-19.363529	-43.259632	39.995783	14.450400	43.816847	39.898264	49.980466	6.111407	46.310761	35.340087	36.429235	-6.355703	56.226092	47.530466	-0.218478	-12.365554	70.185158	55.505397
0.315000	-160.147433	-5.066637	-73.570646	-0.059797	-0.117414	-0.120463	15.170971	-19.338109	-0.144057	13.825274	-25.831156	-19.339367	-43.220087	39.942492	14.435488	43.831311	39.848311	49.937982	6.113450	46.298003	35.312135	36.395217	-6.351264	56.213699	47.501016	-0.220450	-12.368657	70.134518	55.476418
0.325000	-160.147433	-5.066637	-73.570646	-0.059776	-0.117476	-0.120444	15.190523	-19.283278	-0.110007	13.825772	-25.849574	-19.337742	-43.181656	39.901729	14.422558	43.849902	39.784989	49.897241	6.114109	46.298024	35.276447	36.362695	-6.348927	56.223703	47.460889	-0.223999	-12.369301	70.101813	55.441563
0.335000	-160.147433	-5.066637	-73.570646	-0.059758	-0.117549	-0.120421	15.202673	-19.223940	-0.073611	13.839945	-25.851145	-19.356824	-43.140041	39.864103	14.410865	43.869452	39.705927	49.853279	6.112794	46.307429	35.230949	36.328965	-6.347844	56.253072	47.408389	-0.234519	-12.368874	70.090828	55.403348
0.345000	-160.147433	-5.066637	-73.570646	-0.059739	-0.117637	-0.120391	15.211719	-19.155065	-0.029298	13.861267	-25.837960	-19.383738	-43.094490	39.816704	14.398836	43.884697	39.620546	49.801103	6.109646	46.316914	35.179186	36.290079	-6.346516	56.288655	47.350740	-0.255781	-12.369046	70.094283	55.368016
